PathFileType	4	(X/Y/Z)	/home/utkubuntu/opensim/opensim_mycode/release_code/bioimitation/imitation_envs/data/02905/02905_PRE/experimental_data/task.trc
DataRate	CameraRate	NumFrames	NumMarkers	Units	OrigDataRate	OrigDataStartFrame	OrigNumFrames
100.000000	100.000000	4	53	mm	100.000000	0	406
Frame#	Time	C7			CLAV			LANK			LASI			LBHD			LELB			LFHD			LFIN			LFMH			LHEE			LKNE			LKNI			LMED			LMET			LMIF			LPSI			LSHO			LTAD			LTHAP			LTHI			LTIAD			LTIB			LTOE			LTTU			LWRA			LWRB			RANK			RASI			RBAK			RBHD			RELB			RFHD			RFIN			RFMH			RHEE			RKNE			RKNI			RMED			RMET			RMIF			RPSI			RSHO			RTAD			RTHAP			RTHI			RTIAD			RTIB			RTOE			RTTU			RWRA			RWRB			STRN			T10			
		X1	Y1	Z1	X2	Y2	Z2	X3	Y3	Z3	X4	Y4	Z4	X5	Y5	Z5	X6	Y6	Z6	X7	Y7	Z7	X8	Y8	Z8	X9	Y9	Z9	X10	Y10	Z10	X11	Y11	Z11	X12	Y12	Z12	X13	Y13	Z13	X14	Y14	Z14	X15	Y15	Z15	X16	Y16	Z16	X17	Y17	Z17	X18	Y18	Z18	X19	Y19	Z19	X20	Y20	Z20	X21	Y21	Z21	X22	Y22	Z22	X23	Y23	Z23	X24	Y24	Z24	X25	Y25	Z25	X26	Y26	Z26	X27	Y27	Z27	X28	Y28	Z28	X29	Y29	Z29	X30	Y30	Z30	X31	Y31	Z31	X32	Y32	Z32	X33	Y33	Z33	X34	Y34	Z34	X35	Y35	Z35	X36	Y36	Z36	X37	Y37	Z37	X38	Y38	Z38	X39	Y39	Z39	X40	Y40	Z40	X41	Y41	Z41	X42	Y42	Z42	X43	Y43	Z43	X44	Y44	Z44	X45	Y45	Z45	X46	Y46	Z46	X47	Y47	Z47	X48	Y48	Z48	X49	Y49	Z49	X50	Y50	Z50	X51	Y51	Z51	X52	Y52	Z52	X53	Y53	Z53	

1	0	-1626.406005859375	1428.574951171875	-224.5709991455075	-1528.326049804688	1325.496948242188	-218.0720062255857	-1852.31298828125	89.88700103759771	-256.4830017089844	-1555.139038085938	926.0809936523439	-317.4859924316404	-1584.958984375	1529.160034179688	-297.3030090332028	-1513.0830078125	1039.796020507812	-459.3659973144529	-1446.451049804688	1602.483032226562	-268.5780029296872	-1335.780029296875	819.8289794921876	-473.2470092773436	-1714.26904296875	29.31399917602544	-200.3070068359375	-1904.149047851562	60.89300155639653	-218.6349945068359	-1728.251953125	463.5320129394532	-312.4719848632811	-1713.656982421875	457.6690063476563	-197.417999267578	-1835.7060546875	102.4049987792969	-178.3939971923828	-1757.6650390625	20.93199920654303	-286.6919860839844	-1769.35302734375	74.28299713134771	-232.8240051269531	-1707.208984375	944.2490234375	-232.9839935302732	-1595.7919921875	1354.671020507812	-390.669006347656	-1634.801025390625	516.2169799804689	-258.8049926757811	-1566.725952148438	674.0739746093751	-274.2380065917967	-1693.276000976562	556.7349853515626	-367.2030029296874	-1767.303955078125	209.1739959716797	-234.0570068359374	-1798.318969726562	297.3059997558594	-347.0209960937499	-1721.993041992188	33.49499893188482	-244.8979949951172	-1702.630981445312	375.6950073242188	-254.1909942626952	-1340.06005859375	862.6749877929689	-425.0459899902342	-1385.899047851562	842.1660156250001	-476.7239990234373	-1314.0810546875	79.07199859619142	-79.83300018310545	-1535.916015625	928.0369873046875	-74.04900360107401	-1694.529052734375	1317.239013671875	-96.97599792480439	-1593.234985351562	1512.68505859375	-138.1119995117184	-1684.844970703125	1055.037963867188	22.81100082397484	-1459.401977539062	1586.359008789062	-145.5939941406247	-1585.848022460938	767.5280151367188	70.06099700927751	-1174.467041015625	91.7080001831055	-154.6380004882812	-1352.567016601562	19.9570007324219	-110.3310012817383	-1425.037963867188	470.9540100097656	-56.22800064086903	-1427.285034179688	462.6419982910157	-177.6690063476561	-1322.630981445312	95.25499725341801	-161.417007446289	-1196.217041015625	62.54399871826173	-70.92600250244139	-1226.988037109375	100.6699981689453	-116.4690017700195	-1699.506958007812	939.958984375	-129.5480041503904	-1605.805053710938	1358.782958984375	-40.03300094604462	-1394.758056640625	566.8610229492188	-94.83599853515612	-1449.10400390625	724.7369995117188	-82.51100158691391	-1486.483032226562	562	3.042999982833987	-1331.925048828125	278.2430114746094	-116.0210037231445	-1389.775024414062	290.1679992675781	-5.666999816894466	-1177.441040039062	85.91899871826175	-111.7850036621094	-1357.592041015625	417.385986328125	-112.5540008544921	-1578.652954101562	820.3889770507812	20.69099998474139	-1632.4560546875	812.1749877929688	66.32299804687518	-1512.06396484375	1166.045043945312	-211.3979949951169	-1718.378051757812	1134.468017578125	-198.6909942626951	
2	0.01	-1614.546997070312	1427.425048828125	-222.6439971923825	-1516.60205078125	1324.177978515625	-216.5529937744138	-1851.10498046875	92.14399719238287	-257.0710144042969	-1544.083984375	924.9639892578126	-317.4349975585935	-1573.092041015625	1528.045043945312	-295.3959960937497	-1499.656005859375	1039.472045898438	-458.5369873046873	-1434.442993164062	1601.14404296875	-266.7600097656247	-1318.198974609375	823.0269775390626	-470.6069946289061	-1714.506958007812	29.35400009155278	-200.4839935302734	-1903.583984375	64.20099639892582	-219.333999633789	-1719.844970703125	463.5740051269532	-312.6430053710936	-1705.087036132812	457.2130126953126	-197.7129974365233	-1834.321044921875	104.4629974365235	-179.0290069580078	-1757.786010742188	21.04999923706061	-286.7090148925781	-1768.529052734375	75.02999877929693	-233.4909973144531	-1695.47802734375	943.0549926757812	-231.2929992675779	-1583.909057617188	1353.857055664062	-388.9649963378903	-1625.871948242188	515.0709838867189	-259.7430114746093	-1556.4580078125	672.6279907226564	-275.3020019531248	-1684.714965820312	556.6680297851564	-367.2999877929686	-1763.869995117188	209.895004272461	-234.4859924316406	-1793.234008789062	298.6380004882813	-347.4530029296874	-1722.051025390625	33.53499984741217	-244.9880065917969	-1695.98095703125	375.0780029296876	-254.5189971923827	-1323.68505859375	865.7880249023439	-422.6340026855467	-1368.715942382812	844.1409912109376	-474.3059997558592	-1297.635986328125	78.98799896240236	-80.61900329589842	-1522.368041992188	927.10498046875	-73.91999816894511	-1682.618041992188	1315.765991210938	-95.32700347900361	-1581.180053710938	1511.43798828125	-136.2030029296872	-1673.366943359375	1053.119018554688	23.56800079345727	-1447.254028320312	1584.923950195312	-143.7680053710934	-1576.337036132812	765.02099609375	70.88899993896501	-1157.592041015625	93.47399902343753	-154.7740020751953	-1335.673950195312	19.7479991912842	-111.1569976806641	-1414.600952148438	469.3150024414062	-56.29399871826161	-1417.453002929688	461.1319885253907	-177.8430023193358	-1306.076049804688	95.37599945068364	-162.1640014648437	-1179.524047851562	63.81200027465822	-71.17099761962889	-1210.255004882812	101.9209976196289	-116.938003540039	-1687.274047851562	938.7680053710938	-127.8229980468748	-1593.760009765625	1356.93505859375	-38.31900024414033	-1384.910034179688	564.8870239257812	-95.23400115966784	-1437.462036132812	722.2319946289062	-82.53500366210922	-1475.9189453125	560.031982421875	3.250000000000124	-1318.649047851562	278.0440063476562	-116.188003540039	-1377.152954101562	288.8169860839844	-6.046000003814633	-1160.886962890625	87.46399688720706	-111.8259963989258	-1346.760986328125	416.885009765625	-112.9570007324218	-1568.629028320312	817.8880004882812	21.59900093078631	-1622.555053710938	810.030029296875	67.19899749755878	-1500.449951171875	1164.70703125	-210.5209960937497	-1706.461059570312	1133.27197265625	-197.0890045166013	
3	0.02	-1602.673950195312	1426.2939453125	-220.6900024414059	-1504.85400390625	1322.889038085938	-215.0079956054685	-1849.697998046875	94.4410018920899	-257.7520141601562	-1532.859985351562	923.8460083007814	-317.408996582031	-1561.197021484375	1526.9560546875	-293.4609985351559	-1486.443969726562	1039.162963867188	-457.6929931640623	-1422.4150390625	1599.827026367188	-264.9460144042965	-1300.953979492188	826.1799926757814	-467.8940124511717	-1714.600952148438	29.39699935913091	-200.6820068359375	-1902.803955078125	67.57900238037114	-220.10400390625	-1711.233032226562	463.5979919433594	-312.8410034179686	-1696.302978515625	456.7239990234376	-198.0160064697264	-1832.777954101562	106.5210037231446	-179.740005493164	-1757.733032226562	21.18199920654303	-286.760009765625	-1767.515991210938	75.80400085449224	-234.1750030517578	-1683.620971679688	941.8410034179688	-229.6719970703123	-1572.0400390625	1353.090942382812	-387.2170104980466	-1616.743041992188	513.9279785156251	-260.6440124511718	-1546.06396484375	671.1649780273439	-276.313995361328	-1675.991943359375	556.6300048828126	-367.4159851074218	-1760.26904296875	210.6199951171876	-235.0090026855468	-1787.905029296875	299.9939880371094	-347.9379882812499	-1721.964965820312	33.52999877929693	-245.0870056152344	-1689.110961914062	374.4240112304688	-254.8930053710937	-1307.660034179688	868.8460083007814	-420.1459960937498	-1351.850952148438	846.0809936523439	-471.8210144042967	-1282.6259765625	78.4509963989258	-81.52200317382811	-1509.046997070312	926.1580200195312	-73.81099700927714	-1670.64697265625	1314.302001953125	-93.63999938964814	-1569.078002929688	1510.22802734375	-134.2649993896481	-1661.81103515625	1051.239013671875	24.34499931335473	-1435.057006835938	1583.525024414062	-141.940994262695	-1566.75	762.5659790039062	71.71600341796892	-1142.069946289062	94.31099700927737	-154.7989959716797	-1320.462036132812	19.44700050354006	-112.2229995727539	-1403.991943359375	467.6610107421875	-56.32099914550771	-1407.328979492188	459.7179870605469	-177.9649963378905	-1290.73095703125	95.13099670410161	-163.042007446289	-1164.4169921875	64.1330032348633	-71.38800048828124	-1194.926025390625	102.3949966430664	-117.3460006713867	-1674.904052734375	937.5579833984375	-126.2020034790037	-1581.677978515625	1355.139038085938	-36.57799911498994	-1374.746948242188	563.2369995117188	-95.77999877929675	-1425.572021484375	720.18798828125	-82.63500213623031	-1464.68798828125	558.4030151367188	3.463999986648683	-1305.890014648438	277.4830017089844	-116.3560028076171	-1365.041015625	287.239990234375	-6.493000030517514	-1145.70703125	88.04699707031253	-111.8059997558594	-1335.906005859375	416.1830139160156	-113.2099990844726	-1558.536010742188	815.4340209960938	22.49500083923358	-1612.576049804688	807.9329833984375	68.06300354003925	-1488.743041992188	1163.427001953125	-209.6340026855466	-1694.473999023438	1132.067993164062	-195.5180053710935	
4	0.03	-1590.7509765625	1425.203002929688	-218.6540069580075	-1493.02001953125	1321.661010742188	-213.4029998779294	-1848.030029296875	96.84899902343756	-258.6010131835938	-1521.31298828125	922.7009887695314	-317.4100036621091	-1549.240966796875	1525.91796875	-291.4460144042965	-1473.600952148438	1038.878051757812	-456.8070068359373	-1410.327026367188	1598.547973632812	-263.1130065917965	-1284.260986328125	829.2769775390626	-465.0140075683592	-1714.576049804688	29.44099998474126	-200.9089965820312	-1901.756958007812	71.14199829101567	-221.0220031738281	-1702.279052734375	463.5719909667969	-313.0610046386718	-1687.123046875	456.1470031738282	-198.3200073242186	-1831.034057617188	108.6429977416993	-180.5890045166015	-1757.504028320312	21.34000015258795	-286.8659973144531	-1766.27294921875	76.62999725341803	-234.8970031738281	-1671.538940429688	940.572998046875	-228.1770019531248	-1560.180053710938	1352.406982421875	-385.3739929199216	-1607.233032226562	512.7630004882814	-261.4790039062499	-1535.402954101562	669.6660156250001	-277.2349853515623	-1666.974975585938	556.6160278320314	-367.5350036621093	-1756.468994140625	211.3560028076172	-235.6869964599609	-1782.18603515625	301.4020080566407	-348.5010070800781	-1721.744995117188	33.46500015258795	-245.2120056152344	-1681.860961914062	373.6919860839844	-255.3300018310546	-1292.213012695312	871.8350219726564	-417.4949951171873	-1335.505004882812	847.9799804687501	-469.1849975585936	-1270.14404296875	77.22000122070314	-82.56600189208983	-1496.038940429688	925.2100219726562	-73.71800231933574	-1658.555053710938	1312.838012695312	-91.86199951171845	-1556.880004882812	1509.08203125	-132.2469940185543	-1650.116943359375	1049.422973632812	25.16500091552758	-1422.7490234375	1582.181030273438	-140.0859985351559	-1557.032958984375	760.1859741210938	72.55400085449236	-1128.949951171875	93.29799652099612	-154.6679992675781	-1308.296997070312	19.10700035095217	-113.5309982299805	-1393.067016601562	466.0230102539062	-56.30500030517567	-1396.649047851562	458.4630126953126	-178.0030059814452	-1277.576049804688	94.25599670410161	-164.0859985351562	-1152.142944335938	62.74800109863283	-71.56400299072264	-1181.989013671875	101.5	-117.6839981079101	-1662.333984375	936.3330078125	-124.7369995117185	-1569.515991210938	1353.421020507812	-34.76200103759736	-1364.02001953125	562.1190185546875	-96.52700042724597	-1413.234985351562	718.9169921875	-82.86399841308578	-1452.4150390625	557.3060302734375	3.677999973297243	-1294.003051757812	276.3219909667969	-116.5500030517578	-1353.916015625	285.302001953125	-7.093999862670835	-1132.994995117188	86.80400085449222	-111.6969985961914	-1324.93701171875	415.1480102539062	-113.2080001831054	-1548.328002929688	813.0560302734375	23.38800048828143	-1602.467041015625	805.9119873046875	68.9189987182619	-1476.864990234375	1162.239013671875	-208.7129974365232	-1682.348999023438	1130.848022460938	-194.0039978027341	
